<svg width="1422" height="958" viewBox="0 0 1422 958" fill="none" xmlns="http://www.w3.org/2000/svg">
<g filter="url(#filter0_f_104_327)">
<path d="M3560 444.986C3559.18 444.166 3558.36 444.167 3557.54 444.167L3418.2 524.503V363.83C3418.2 363.01 3418.2 363.01 3417.38 362.191C3416.56 362.191 3415.74 362.191 3415.74 362.191L3274.77 443.347L3137.07 363.83L3276.41 283.494C3276.41 283.494 3276.41 283.494 3276.41 282.674V121.182L3415.74 201.518C3416.56 202.338 3417.38 201.518 3418.2 200.698C3419.02 199.879 3418.2 199.059 3417.38 198.239L3275.59 116.263C3274.77 116.263 3274.77 116.263 3273.95 116.263L3132.97 197.419L2850.2 34.2877C2849.38 33.468 2848.56 34.2877 2847.74 35.1075C2847.74 35.1075 2847.74 35.9272 2847.74 36.747C2847.74 37.5667 2847.74 37.5668 2848.56 37.5668L2987.9 117.903L2708.4 279.395L2570.7 199.879L2710.04 119.542C2710.86 118.723 2710.86 117.903 2710.86 117.083C2710.04 116.263 2709.22 116.263 2708.4 116.263L2569.06 196.6V36.747C2569.06 35.9272 2569.06 35.9272 2568.24 35.1075L2426.45 -46.8683C2425.63 -47.688 2424.81 -46.8683 2423.99 -46.0485C2423.99 -45.2287 2423.99 -45.2287 2423.99 -44.409C2423.99 -43.5892 2424.81 -43.5892 2424.81 -43.5892L2564.14 36.747L2286.29 197.419V36.747C2286.29 35.9272 2286.29 35.9272 2285.47 35.1075L2143.67 -46.8683C2142.85 -46.8683 2142.85 -46.8683 2142.03 -46.8683C2141.21 -46.8683 2141.21 -46.0485 2141.21 -45.2288V117.083L2003.51 196.6V36.747C2003.51 35.9272 2002.7 35.1075 2001.88 35.1075C2001.06 35.1075 2000.24 35.9272 2000.24 36.747V197.419L1862.54 117.903V-44.409L2003.51 -125.565C2004.33 -126.385 2004.33 -127.204 2004.33 -128.024C2003.51 -128.844 2002.7 -128.844 2001.88 -128.844L1862.54 -48.5078V-208.36C1862.54 -208.36 1862.54 -209.18 1861.72 -210H1860.9H1860.08L1718.28 -128.024C1717.46 -127.204 1717.46 -127.204 1717.46 -126.385V34.2877L1578.12 -46.0485C1577.3 -46.8683 1576.49 -46.0485 1575.67 -45.2288C1574.85 -44.409 1575.67 -43.5892 1576.49 -42.7695L1715.82 37.5668L1578.12 117.083L1437.15 35.9272H1436.33L1296.99 116.263V-45.2288C1296.99 -46.0485 1296.17 -46.8683 1295.35 -46.8683C1294.53 -46.8683 1293.71 -46.0485 1293.71 -45.2288V117.083L1153.55 198.239L1015.86 118.723L1155.19 38.3865C1156.01 37.5667 1156.01 36.747 1156.01 35.9272C1155.19 35.1075 1154.37 35.1075 1153.55 35.1075L1014.22 115.444V-45.2288C1014.22 -45.2288 1014.22 -46.0485 1013.4 -46.0485L871.6 -128.024C870.78 -128.844 869.961 -128.024 869.141 -127.205C868.321 -126.385 869.141 -125.565 869.961 -124.745L1009.3 -44.409L729.803 117.083L588.826 35.9272H588.006L448.669 116.263V-45.2288C448.669 -46.0485 447.849 -46.8683 447.029 -46.8683C446.21 -46.8683 445.39 -46.0485 445.39 -45.2288V117.083L305.233 198.239L164.256 117.083C163.436 117.083 163.436 117.083 162.616 117.083L20.8197 199.059C20 199.879 20 200.698 20 201.518C20.8196 202.338 21.6393 202.338 22.4589 202.338L161.797 122.002V282.674C161.797 282.674 161.797 282.674 161.797 283.494L302.774 364.65V524.503L163.436 444.167C162.616 443.347 161.797 444.166 160.977 444.986C160.157 445.806 160.977 446.626 161.797 447.445L442.112 609.757L302.774 690.094C301.954 690.913 301.954 691.733 301.954 692.553C301.954 693.373 302.774 693.373 302.774 693.373C303.593 693.373 303.593 693.373 304.413 693.373L445.39 612.217L586.367 693.373C587.187 694.192 588.006 693.373 588.826 692.553C589.646 691.733 588.826 690.913 588.006 690.094L448.669 609.757L726.525 449.085V609.757C726.525 610.577 727.344 611.397 728.164 611.397C728.984 611.397 729.803 610.577 729.803 609.757V449.085L867.502 528.601V690.913C867.502 691.733 867.502 691.733 868.321 692.553L1010.12 774.529C1010.94 775.349 1011.76 774.529 1012.58 773.709C1013.4 772.889 1012.58 772.069 1011.76 771.25L872.419 690.913L1011.76 610.577L1012.58 609.757V449.085L1150.28 528.601V690.913C1150.28 691.733 1151.1 692.553 1151.91 692.553C1152.73 692.553 1153.55 691.733 1153.55 690.913V530.241L1433.87 692.553C1434.69 693.373 1435.51 692.553 1436.33 691.733C1437.15 690.913 1436.33 690.094 1435.51 689.274L1296.17 608.938L1574.03 448.265V608.938C1574.03 609.757 1574.03 609.758 1574.85 610.577C1575.67 610.577 1575.67 610.577 1576.49 610.577L1717.46 529.421L1855.16 608.938L1574.85 771.25C1574.03 772.069 1574.03 772.889 1574.03 773.709C1574.03 774.529 1574.85 774.529 1574.85 774.529C1575.67 774.529 1575.67 774.529 1576.49 774.529L1715.82 694.193V854.865C1715.82 854.865 1715.82 855.685 1716.64 855.685L1858.44 937.66C1859.26 938.48 1860.08 937.66 1860.9 936.841C1861.72 936.021 1860.9 935.201 1860.08 934.381L1720.74 854.045L2001.88 691.733C2001.88 691.733 2002.7 690.913 2002.7 690.094V529.421L2140.39 608.938V771.25C2140.39 772.069 2141.21 772.889 2142.03 772.889C2142.85 772.889 2143.67 772.069 2143.67 771.25V608.938L2281.37 529.421V690.094C2281.37 690.913 2281.37 690.913 2282.19 691.733C2283.01 691.733 2283.01 691.733 2283.83 691.733L2423.17 611.397V772.069C2423.17 772.889 2423.17 772.889 2423.99 773.709L2565.78 855.685C2566.6 856.505 2567.42 855.685 2568.24 854.865C2569.06 854.045 2568.24 853.225 2567.42 852.406L2428.09 772.069L2567.42 691.733L2568.24 690.913V530.241L2846.1 690.913L2706.76 771.25C2705.94 772.069 2705.94 772.889 2705.94 773.709L2706.76 774.529C2707.58 774.529 2707.58 774.529 2708.4 774.529L2988.72 612.217V772.889C2988.72 773.709 2989.53 774.529 2990.35 774.529C2991.17 774.529 2991.99 773.709 2991.99 772.889V610.577L3129.69 531.061V691.733C3129.69 692.553 3129.69 692.553 3130.51 693.373C3131.33 693.373 3131.33 693.373 3132.15 693.373L3273.13 612.217L3414.1 693.373C3414.92 694.192 3415.74 693.373 3416.56 692.553C3417.38 691.733 3416.56 690.913 3415.74 690.094L3276.41 609.757L3556.72 447.445C3560 446.626 3560 445.806 3560 444.986ZM3278.87 445.806L3414.92 367.109V524.503L3278.87 445.806ZM3277.23 606.478V449.085L3413.29 527.782L3277.23 606.478ZM3135.43 360.551V203.158L3203.46 242.506L3271.49 281.854L3135.43 360.551ZM3137.07 199.879L3273.13 121.182V278.575L3137.07 199.879ZM3271.49 608.938L3135.43 687.634V530.241L3271.49 608.938ZM3137.07 527.782L3273.13 449.085V606.478L3137.07 527.782ZM3135.43 524.503V367.109L3271.49 445.806L3135.43 524.503ZM2993.63 606.478V446.626L3131.33 367.109V526.962L2993.63 606.478ZM2995.27 281.854L3131.33 203.158V360.551L2995.27 281.854ZM3129.69 363.83L2993.63 442.527V285.134L3129.69 363.83ZM2993.63 278.575V121.182L3129.69 199.879L2993.63 278.575ZM2851.84 526.142V364.65L2989.53 285.134V606.478L2851.84 526.142ZM2987.9 608.938L2851.84 687.634V530.241L2987.9 608.938ZM2851.84 360.551V203.158L2987.9 281.854L2851.84 360.551ZM2853.48 199.879L2989.53 121.182V278.575L2853.48 199.879ZM2711.68 608.938L2847.74 530.241V687.634L2711.68 608.938ZM2846.92 527.782L2710.86 606.478V449.085L2846.92 527.782ZM2711.68 445.806L2847.74 367.109V524.503L2711.68 445.806ZM2711.68 281.854L2847.74 203.158V360.551L2711.68 281.854ZM2710.04 442.527V285.134L2846.1 363.83L2710.04 442.527ZM2563.32 690.913L2427.27 769.61V612.217L2563.32 690.913ZM2428.91 608.938L2564.96 530.241V687.634L2428.91 608.938ZM2563.32 527.782L2427.27 606.478V449.085L2563.32 527.782ZM2287.11 199.879L2424.81 120.362L2562.51 199.879L2424.81 279.395L2287.11 199.879ZM2423.17 449.085V608.938L2285.47 688.454V528.601L2423.17 449.085ZM2421.53 445.806L2285.47 524.503V367.109L2421.53 445.806ZM2287.11 363.83L2564.96 203.158V524.503L2287.11 363.83ZM2285.47 360.551V203.158L2421.53 281.854L2285.47 360.551ZM2428.91 118.723L2564.96 40.026V197.419L2428.91 118.723ZM2570.7 527.782L2706.76 449.085V606.478L2570.7 527.782ZM2569.06 360.551V203.158L2705.12 281.854L2569.06 360.551ZM2569.06 524.503V364.65L2706.76 285.134V444.986L2569.06 524.503ZM2279.73 527.782L2143.67 606.478V449.085L2279.73 527.782ZM2145.31 445.806L2281.37 367.109V524.503L2145.31 445.806ZM2145.31 281.854L2281.37 203.158V360.551L2145.31 281.854ZM2279.73 363.83L2143.67 442.527V285.134L2279.73 363.83ZM2143.67 278.575V119.542L2281.37 40.026V199.879L2143.67 278.575ZM2143.67 115.444V-41.9497L2279.73 36.747L2143.67 115.444ZM2004.33 527.782L2140.39 449.085V606.478L2004.33 527.782ZM2001.88 360.551V203.158L2137.93 281.854L2001.88 360.551ZM2001.88 524.503V364.65L2139.57 285.134V444.986L2001.88 524.503ZM2004.33 199.879L2140.39 121.182V278.575L2004.33 199.879ZM1862.54 445.806L1998.6 367.109V524.503L1862.54 445.806ZM1998.6 528.601V688.454L1860.9 608.938V449.085L1998.6 528.601ZM1996.96 690.913L1860.9 769.61V612.217L1996.96 690.913ZM1860.9 281.035V121.182L1998.6 200.698V360.551L1860.9 281.035ZM1996.96 363.83L1860.9 442.527V285.134L1996.96 363.83ZM1720.74 527.782L1856.8 449.085V606.478L1720.74 527.782ZM1855.16 445.806L1719.1 524.503V367.109L1855.16 445.806ZM1720.74 363.83L1856.8 285.134V442.527L1720.74 363.83ZM1719.1 360.551V201.518L1856.8 122.002V281.854L1719.1 360.551ZM1720.74 36.747L1856.8 -41.9497V115.444L1720.74 36.747ZM1855.16 118.723L1719.1 197.419V40.026L1855.16 118.723ZM1719.1 33.468V-123.925L1855.16 -45.2288L1719.1 33.468ZM1720.74 -127.205L1856.8 -205.901V-48.5078L1720.74 -127.205ZM1720.74 690.913L1856.8 612.217V769.61L1720.74 690.913ZM1719.1 851.586V694.193L1855.16 772.889L1719.1 851.586ZM1437.15 199.879L1573.21 121.182V278.575L1437.15 199.879ZM1433.87 198.239L1296.17 118.723L1433.87 39.2063L1571.57 118.723L1433.87 198.239ZM1293.71 278.575V121.182L1429.77 199.879L1293.71 278.575ZM1430.59 527.782L1294.53 606.478V449.085L1430.59 527.782ZM1432.23 367.109V524.503L1296.17 445.806L1432.23 367.109ZM1432.23 203.158V363.01L1294.53 442.527V282.674L1432.23 203.158ZM1578.94 118.723L1715 40.026V197.419L1578.94 118.723ZM1578.94 281.854L1715 203.158V360.551L1578.94 281.854ZM1577.3 278.575V121.182L1713.36 199.879L1577.3 278.575ZM1713.36 527.782L1577.3 606.478V449.085L1713.36 527.782ZM1715 367.109V524.503L1578.94 445.806L1715 367.109ZM1435.51 524.503V203.158L1713.36 363.83L1435.51 524.503ZM1154.37 527.782L1290.43 449.085V606.478L1154.37 527.782ZM863.404 363.83L727.344 442.527V285.134L863.404 363.83ZM867.502 525.322L729.803 445.806L867.502 366.29L1005.2 445.806L867.502 525.322ZM1006.84 449.085V606.478L870.78 527.782L1006.84 449.085ZM1005.2 608.938L869.141 687.634V530.241L1005.2 608.938ZM1005.2 281.854L869.141 360.551V203.158L1005.2 281.854ZM1006.84 285.134V442.527L870.78 363.83L1006.84 285.134ZM869.141 197.419V40.026L1005.2 118.723L869.141 197.419ZM870.78 199.879L1008.48 120.362L1148.64 201.518V361.371L870.78 199.879ZM1147 363.83L1010.94 442.527V285.134L1147 363.83ZM1288.79 445.806L1151.1 525.322L1013.4 445.806L1151.1 366.29L1288.79 445.806ZM1152.73 360.551V203.158L1288.79 281.854L1152.73 360.551ZM1154.37 363.83L1290.43 285.134V442.527L1154.37 363.83ZM588.006 199.879L865.862 39.2063V360.551L588.006 199.879ZM722.426 445.806L586.367 524.503V367.109L722.426 445.806ZM724.066 285.134V442.527L588.006 363.83L724.066 285.134ZM722.426 281.854L586.367 360.551V203.158L722.426 281.854ZM585.548 197.419V40.026L721.607 118.723L585.548 197.419ZM870.78 36.747L1006.84 -41.9497V115.444L870.78 36.747ZM1154.37 199.879L1290.43 121.182V278.575L1154.37 199.879ZM580.63 527.782L444.57 606.478V449.085L580.63 527.782ZM446.21 445.806L582.269 367.109V524.503L446.21 445.806ZM444.57 442.527V282.674L582.269 203.158V363.01L444.57 442.527ZM444.57 278.575V121.182L580.63 199.879L444.57 278.575ZM446.21 118.723L582.269 40.026V197.419L446.21 118.723ZM304.413 527.782L440.472 449.085V606.478L304.413 527.782ZM438.833 445.806L302.774 524.503V367.109L438.833 445.806ZM304.413 363.83L440.472 285.134V442.527L304.413 363.83ZM302.774 360.551V203.158L438.833 281.854L302.774 360.551ZM304.413 199.879L440.472 121.182V278.575L304.413 199.879ZM160.977 278.575V121.182L297.036 199.879L160.977 278.575ZM162.616 281.854L298.676 203.158V360.551L162.616 281.854Z" fill="url(#paint0_linear_104_327)"/>
</g>
<defs>
<filter id="filter0_f_104_327" x="0" y="-230" width="3580" height="1188" filterUnits="userSpaceOnUse" color-interpolation-filters="sRGB">
<feFlood flood-opacity="0" result="BackgroundImageFix"/>
<feBlend mode="normal" in="SourceGraphic" in2="BackgroundImageFix" result="shape"/>
<feGaussianBlur stdDeviation="10" result="effect1_foregroundBlur_104_327"/>
</filter>
<linearGradient id="paint0_linear_104_327" x1="7.49238" y1="363.829" x2="3555.37" y2="363.829" gradientUnits="userSpaceOnUse">
<stop stop-color="#0096F5"/>
<stop offset="0.582546" stop-color="#8B0CA0"/>
<stop offset="1" stop-color="#FF0000"/>
</linearGradient>
</defs>
</svg>
